<svg xmlns="http://www.w3.org/2000/svg" viewBox="0 0 64 64" role="img" aria-label="Tandem">
  <defs>
    <linearGradient id="bg" x1="8" x2="56" y1="6" y2="58" gradientUnits="userSpaceOnUse">
      <stop offset="0" stop-color="#1d2021"/>
      <stop offset="1" stop-color="#2f4a38"/>
    </linearGradient>
    <linearGradient id="loopA" x1="11" x2="54" y1="20" y2="44" gradientUnits="userSpaceOnUse">
      <stop offset="0" stop-color="#d5e7d0"/>
      <stop offset="0.55" stop-color="#8ec07c"/>
      <stop offset="1" stop-color="#83a598"/>
    </linearGradient>
    <linearGradient id="loopB" x1="18" x2="51" y1="46" y2="18" gradientUnits="userSpaceOnUse">
      <stop offset="0" stop-color="#e6bf86"/>
      <stop offset="1" stop-color="#c7e5df"/>
    </linearGradient>
  </defs>
  <rect width="64" height="64" rx="16" fill="url(#bg)"/>
  <path d="M21 40c-6 0-11-4.1-11-9.1s5-9.1 11-9.1c4.1 0 7.1 1.8 10.6 5.2l4.8 4.7c3.2 3.1 5.5 4.6 8.5 4.6 3.7 0 6.4-2.1 6.4-5s-2.8-5-6.4-5c-2.4 0-4.3.9-6.6 3" fill="none" stroke="url(#loopA)" stroke-linecap="round" stroke-linejoin="round" stroke-width="6.5"/>
  <path d="M43 24c6 0 11 4.1 11 9.1s-5 9.1-11 9.1c-4.1 0-7.1-1.8-10.6-5.2l-4.8-4.7c-3.2-3.1-5.5-4.6-8.5-4.6-3.7 0-6.4 2.1-6.4 5s2.8 5 6.4 5c2.4 0 4.3-.9 6.6-3" fill="none" stroke="url(#loopB)" stroke-linecap="round" stroke-linejoin="round" stroke-width="6.5" opacity="0.96"/>
  <path d="M27.5 32h9" stroke="#fbf1c7" stroke-linecap="round" stroke-width="3.8" opacity="0.9"/>
</svg>
