<svg xmlns="http://www.w3.org/2000/svg" viewBox="0 0 1200 630" role="img" aria-labelledby="social-title social-desc">
  <title id="social-title">Tandem documentation</title>
  <desc id="social-desc">Local-first coordination for human and agent work in one repository.</desc>
  <defs>
    <radialGradient id="halo" cx="22%" cy="16%" r="68%">
      <stop offset="0" stop-color="#2f4a38"/>
      <stop offset="0.46" stop-color="#222526"/>
      <stop offset="1" stop-color="#1d2021"/>
    </radialGradient>
    <linearGradient id="markA" x1="760" x2="1050" y1="220" y2="410" gradientUnits="userSpaceOnUse">
      <stop offset="0" stop-color="#d5e7d0"/>
      <stop offset="0.55" stop-color="#8ec07c"/>
      <stop offset="1" stop-color="#83a598"/>
    </linearGradient>
    <linearGradient id="markB" x1="805" x2="1018" y1="430" y2="190" gradientUnits="userSpaceOnUse">
      <stop offset="0" stop-color="#e6bf86"/>
      <stop offset="1" stop-color="#c7e5df"/>
    </linearGradient>
    <filter id="softGlow" x="-20%" y="-20%" width="140%" height="140%" color-interpolation-filters="sRGB">
      <feGaussianBlur stdDeviation="18" result="blur"/>
      <feColorMatrix in="blur" values="0 0 0 0 0.56 0 0 0 0 0.75 0 0 0 0 0.49 0 0 0 0.34 0" result="glow"/>
      <feMerge>
        <feMergeNode in="glow"/>
        <feMergeNode in="SourceGraphic"/>
      </feMerge>
    </filter>
  </defs>
  <rect width="1200" height="630" fill="url(#halo)"/>
  <path d="M0 520C168 455 316 452 481 506c157 52 288 39 425-42 107-63 198-78 294-51v217H0Z" fill="#28362f" opacity="0.65"/>
  <path d="M90 90h1020v450H90z" fill="none" stroke="#665c54" stroke-width="2" opacity="0.65"/>
  <g font-family="Inter, ui-sans-serif, system-ui, -apple-system, BlinkMacSystemFont, 'Segoe UI', sans-serif">
    <text x="120" y="184" fill="#8ec07c" font-size="28" font-weight="700" letter-spacing="4">TANDEM DOCS</text>
    <text x="120" y="292" fill="#fbf1c7" font-size="86" font-weight="800" letter-spacing="-3">Local-first</text>
    <text x="120" y="386" fill="#fbf1c7" font-size="86" font-weight="800" letter-spacing="-3">coordination</text>
    <text x="124" y="456" fill="#d5c4a1" font-size="34" font-weight="500">Tasks · accords · decisions · validation · logs</text>
  </g>
  <g fill="none" filter="url(#softGlow)" stroke-linecap="round" stroke-linejoin="round">
    <path d="M828 380c-48 0-87-34-87-76s39-76 87-76c33 0 56 14 85 42l30 30c26 26 45 41 71 41 29 0 52-18 52-41s-23-41-52-41c-19 0-36 8-54 26" stroke="url(#markA)" stroke-width="34"/>
    <path d="M998 250c48 0 87 34 87 76s-39 76-87 76c-33 0-56-14-85-42l-30-30c-26-26-45-41-71-41-29 0-52 18-52 41s23 41 52 41c19 0 36-8 54-26" stroke="url(#markB)" stroke-width="34" opacity="0.95"/>
    <path d="M884 330h58" stroke="#fbf1c7" stroke-width="20" opacity="0.88"/>
  </g>
</svg>
