<svg xmlns="http://www.w3.org/2000/svg" viewBox="0 0 96 96" role="img" aria-labelledby="tandem-mark-title">
  <title id="tandem-mark-title">Tandem linked work mark</title>
  <defs>
    <linearGradient id="tandem-mark-a" x1="16" x2="82" y1="22" y2="78" gradientUnits="userSpaceOnUse">
      <stop offset="0" stop-color="#d5e7d0"/>
      <stop offset="0.54" stop-color="#8ec07c"/>
      <stop offset="1" stop-color="#83a598"/>
    </linearGradient>
    <linearGradient id="tandem-mark-b" x1="25" x2="72" y1="72" y2="20" gradientUnits="userSpaceOnUse">
      <stop offset="0" stop-color="#e6bf86"/>
      <stop offset="1" stop-color="#c7e5df"/>
    </linearGradient>
    <filter id="tandem-mark-glow" x="-32" y="-32" width="160" height="160" color-interpolation-filters="sRGB">
      <feGaussianBlur in="SourceAlpha" stdDeviation="5" result="blur"/>
      <feColorMatrix in="blur" values="0 0 0 0 0.56 0 0 0 0 0.75 0 0 0 0 0.49 0 0 0 0.38 0" result="glow"/>
      <feMerge>
        <feMergeNode in="glow"/>
        <feMergeNode in="SourceGraphic"/>
      </feMerge>
    </filter>
  </defs>
  <g fill="none" filter="url(#tandem-mark-glow)" stroke-linecap="round" stroke-linejoin="round">
    <path d="M31 62c-9.6 0-17.5-6.8-17.5-15.2S21.4 31.6 31 31.6c6.6 0 11.3 2.9 17 8.6l6 6.1c5.3 5.3 9 8.1 14.2 8.1 5.9 0 10.4-3.5 10.4-8.1s-4.5-8.2-10.4-8.2c-3.9 0-7.2 1.6-10.9 5.2" stroke="url(#tandem-mark-a)" stroke-width="9"/>
    <path d="M65 34c9.6 0 17.5 6.8 17.5 15.2S74.6 64.4 65 64.4c-6.6 0-11.3-2.9-17-8.6l-6-6.1c-5.3-5.3-9-8.1-14.2-8.1-5.9 0-10.4 3.5-10.4 8.1s4.5 8.2 10.4 8.2c3.9 0 7.2-1.6 10.9-5.2" stroke="url(#tandem-mark-b)" stroke-width="9" opacity="0.95"/>
    <path d="M42 49.7h12" stroke="#fbf1c7" stroke-width="5" opacity="0.9"/>
  </g>
</svg>
